# xmcd CD database file generated by Grip 3.3.1
# 
# Track frame offsets:
#       150
#       19748
#       34125
#       56759
#       76912
#       95195
#       119110
#       132659
#       150902
#       165520
#       168118
#       184610
#       186345
#       217632
#       243623
#       261942
#       279035
# 
# Disc length: 3898 seconds
# 
# Revision: 0
# Processed by: cddbd v1.5.2PL0 Copyright (c) Steve Scherf et al.
# Submitted via: Grip 3.3.1
# 
DISCID=e50f3811
DTITLE=Slađana Milošević - Metamorfoza Vol.2
DYEAR=2002
DGENRE=Rock
TTITLE0=Moja čudna putovanja
TTITLE1=Gorim od želje da ubijem noć
TTITLE2=Očigledno nije mi svejedno
TTITLE3=Das Licht von Kairo (Svetla Kaira)
TTITLE4=Prvi sneg (Dolazi zima)
TTITLE5=Times are changing
TTITLE6=No, no, no (Toy boy)
TTITLE7=Hey, little boy
TTITLE8=New York
TTITLE9=Specification
TTITLE10=Miki, Miki
TTITLE11=Drži me za ruku
TTITLE12=Sexy dama II
TTITLE13=My cross is bleeding
TTITLE14=Vojnik
TTITLE15=Dosta suza
TTITLE16=Princeza
EXTD=
EXTT0=
EXTT1=
EXTT2=
EXTT3=
EXTT4=
EXTT5=
EXTT6=
EXTT7=
EXTT8=
EXTT9=
EXTT10=
EXTT11=
EXTT12=
EXTT13=
EXTT14=
EXTT15=
EXTT16=
PLAYORDER=
